<svg width="458" height="66" viewBox="0 0 458 66" xmlns="http://www.w3.org/2000/svg"><defs><linearGradient x1="0%" y1="49.982%" x2="459.218%" y2="49.982%" id="a"><stop stop-color="#6051F2" offset="0%"/><stop stop-color="#6963F4" offset="34%"/><stop stop-color="#7D8CF9" offset="95%"/></linearGradient><linearGradient x1="-212.826%" y1="50%" x2="240.681%" y2="50%" id="b"><stop stop-color="#6051F2" offset="0%"/><stop stop-color="#6963F4" offset="34%"/><stop stop-color="#7D8CF9" offset="95%"/></linearGradient><linearGradient x1="56.814%" y1="49.989%" x2="429.359%" y2="49.989%" id="c"><stop stop-color="#6051F2" offset="0%"/><stop stop-color="#6459F3" offset="24%"/><stop stop-color="#6E6DF5" offset="60%"/><stop stop-color="#7D8CF9" offset="100%"/></linearGradient><linearGradient x1="348.798%" y1="50%" x2="353.808%" y2="50%" id="d"><stop stop-color="#6051F2" offset="0%"/><stop stop-color="#645AF3" offset="10%"/><stop stop-color="#7275F6" offset="45%"/><stop stop-color="#7A86F8" offset="76%"/><stop stop-color="#7D8CF9" offset="100%"/></linearGradient></defs><g fill="none"><path d="M87.688 50.24L78.74 33.677h-7.718v16.561h-9.538V4.19h19.682c4.466 0 8.053 1.302 10.76 3.907 2.708 2.605 4.062 6.227 4.062 10.868a15.95 15.95 0 01-1.934 8.096 12.567 12.567 0 01-5.45 5.078l9.783 18.101H87.688zM70.986 25.237h9.01a6.387 6.387 0 004.58-1.663 6.058 6.058 0 001.758-4.611 6.217 6.217 0 00-1.758-4.743 6.387 6.387 0 00-4.58-1.663H70.96l.027 12.68zm35.822-22.65a5.21 5.21 0 013.842 1.567 5.283 5.283 0 011.573 3.845 5.177 5.177 0 01-1.573 3.793 5.272 5.272 0 01-3.842 1.566 5.157 5.157 0 01-3.815-1.566 5.283 5.283 0 01-1.539-3.793 5.203 5.203 0 011.6-3.81 5.131 5.131 0 013.754-1.602zM111.3 50.24h-8.984V18.41h8.984v31.83zm24.35-32.446a14.523 14.523 0 0111.103 4.55c2.849 3.044 4.273 7.036 4.273 11.976 0 4.94-1.424 8.94-4.273 12.003a14.532 14.532 0 01-11.102 4.559c-3.898 0-6.869-1.13-8.914-3.388v18.444h-8.94v-47.52h8.491v3.318c1.958-2.628 5.079-3.942 9.363-3.942zm-1.415 7.726a7.143 7.143 0 00-5.441 2.182 8.339 8.339 0 00-2.057 5.95v1.469a8.339 8.339 0 002.057 5.949 7.827 7.827 0 0010.98-.194c1.412-1.56 2.121-3.734 2.127-6.52.006-2.787-.703-4.964-2.127-6.53a7.17 7.17 0 00-5.539-2.306zm52.341 11.66h-21.837a6.771 6.771 0 001.882 4.743 6.475 6.475 0 004.764 1.76c3.2 0 5.146-1.173 5.837-3.52l9.046.431a11.555 11.555 0 01-4.95 7.454 16.356 16.356 0 01-9.67 2.895c-4.922 0-8.89-1.499-11.902-4.497-3.012-2.997-4.524-7.04-4.536-12.126 0-5.092 1.497-9.126 4.492-12.1s6.901-4.45 11.718-4.427c4.63 0 8.32 1.406 11.068 4.216 2.749 2.81 4.123 6.679 4.123 11.607l-.035 3.564zm-15.252-12.373a6.378 6.378 0 00-4.642 1.699 6.841 6.841 0 00-1.943 4.708h12.835a7.044 7.044 0 00-1.758-4.708 5.834 5.834 0 00-4.492-1.699zm60.7-14.775c4.308 4.247 6.461 9.973 6.461 17.178 0 7.204-2.153 12.93-6.461 17.177a22.193 22.193 0 01-16.237 6.407 22.48 22.48 0 01-16.36-6.407c-4.307-4.247-6.46-9.973-6.46-17.177 0-7.205 2.153-12.93 6.46-17.178a22.474 22.474 0 0116.36-6.406 22.193 22.193 0 0116.237 6.406zm-29.889 2.34c-3.63 3.635-5.415 8.616-5.415 14.838 0 6.221 1.758 11.202 5.415 14.836 7.614 7.318 19.639 7.318 27.252 0 3.63-3.634 5.415-8.615 5.415-14.836 0-6.222-1.758-11.203-5.415-14.837-7.613-7.318-19.638-7.318-27.252 0zM259.636 22a9.04 9.04 0 00-6.822 2.71 9.272 9.272 0 00-2.523 6.592v18.937h-3.446V19.087h3.323v5.104c1.17-3.018 4.545-5.544 9.468-5.544V22zm27.181-.334a12.113 12.113 0 014.395 8.316l-3.384.308c-.554-5.421-4.668-8.748-10.268-8.748-6.83 0-11.428 4.928-11.428 13.121 0 8.193 4.791 13.112 11.499 13.112 5.66 0 9.467-3.08 10.267-8.07l3.385.247c-1.17 6.714-6.277 10.842-13.652 10.842a14.47 14.47 0 01-10.822-4.312c-2.769-2.896-4.184-6.838-4.184-11.819 0-4.98 1.415-8.932 4.184-11.827a14.233 14.233 0 0110.76-4.303 13.942 13.942 0 019.248 3.133zm15.375-19.264v21.79c1.477-3.142 5.23-5.66 10.215-5.66a11.325 11.325 0 018.606 3.52c2.277 2.28 3.385 5.28 3.385 9.056v19.131h-3.446V31.522c0-5.852-3.692-9.795-9.099-9.795a9.322 9.322 0 00-6.953 2.913 9.844 9.844 0 00-2.708 6.9v18.7h-3.437V2.401h3.437zm58.74 33.555h-25.405a12.045 12.045 0 003.323 8.677 11.026 11.026 0 008.052 3.141c5.415 0 9.107-2.464 10.276-6.837l3.446.246c-1.476 5.852-6.522 9.61-13.599 9.61a14.54 14.54 0 01-10.883-4.312c-2.83-2.893-4.246-6.832-4.246-11.819 0-4.99 1.415-8.932 4.185-11.827 2.769-2.895 6.4-4.303 10.821-4.303 4.422 0 7.815 1.408 10.276 4.18 2.462 2.772 3.754 6.406 3.754 11.026v2.218zm-25.405-2.895h22.02c0-6.9-3.815-11.44-10.698-11.44-6.46-.018-11.04 4.232-11.322 11.44zm53.325-5.729l-3.446.246c-.493-3.757-3.077-6.037-7.508-5.975-4.73-.062-7.252 2.094-7.252 5.729.016.83.205 1.648.554 2.402a5.988 5.988 0 001.661 1.417c.493.246 2.092.678 2.637.88l1.61.37 1.713.37c3.816.926 6.585 1.97 8.308 3.132 1.758 1.17 2.584 3.08 2.584 5.667 0 5.914-4.395 9.24-11.322 9.24-6.637 0-11.068-3.203-11.868-8.87l3.446-.247c.677 4.004 3.754 6.099 8.483 6.099 4.73 0 7.815-2.033 7.815-5.993 0-1.848-.615-3.142-1.846-3.88-1.23-.802-3.569-1.54-7.033-2.333-1.23-.308-2.021-.501-2.452-.554l-2.03-.616a15.69 15.69 0 01-2.031-.74c-.677-.43-2.277-1.355-2.77-2.279a9.847 9.847 0 01-.923-4.004c0-5.42 3.939-8.861 10.822-8.8 6.356-.061 10.11 3.318 10.848 8.739zm22.812 19.765v3.141c-1.302.217-2.62.32-3.939.308-5.406 0-8.667-3.018-8.667-9.425l.044-19.025h-5.89v-3.01h5.89l.061-11.026h3.517l-.062 11.026h8.914v3.01h-8.914l-.114 18.383c0 4.62 1.969 6.9 5.898 6.9a26.688 26.688 0 003.262-.282zM430.3 22a9.076 9.076 0 00-6.83 2.71 9.263 9.263 0 00-2.514 6.592v18.937h-3.446V19.087h3.323v5.104c1.169-3.018 4.544-5.544 9.467-5.544V22zm27.181 8.351V50.24h-3.516v-4.681c-2.268 3.52-5.714 5.236-10.33 5.236-5.96 0-9.898-3.08-9.898-8.563 0-5.482 3.807-8.615 11.376-9.046l8.852-.555v-2.217c0-5.606-2.576-8.747-7.745-8.747-5.169 0-8.114 3.572-8.114 7.761l-3.516-.123a10.39 10.39 0 013.191-7.515 11.22 11.22 0 018.422-3.256c7.287 0 11.278 4.347 11.278 11.818zm-3.446 5.236l-8.544.484c-5.538.305-8.308 2.338-8.308 6.099 0 3.757 2.339 5.605 6.954 5.605 5.723 0 9.898-3.326 9.898-10.78v-1.408z" fill="#22283F"/><rect fill="url(#a)" y="15.154" width="8.773" height="24.878" rx="4.387"/><rect fill="url(#b)" x="13.151" y="4.682" width="8.773" height="44.123" rx="4.387"/><rect fill="url(#c)" opacity=".7" x="26.311" width="8.773" height="41.316" rx="4.387"/><rect fill="url(#d)" opacity=".47" x="39.462" y="17.266" width="8.773" height="24.763" rx="4.387"/></g></svg>